<?xml version="1.0" encoding="iso-8859-1"?>
<!-- Generator: Adobe Illustrator 19.0.0, SVG Export Plug-In . SVG Version: 6.00 Build 0)  -->
<svg version="1.1" id="Layer_1" xmlns="http://www.w3.org/2000/svg" xmlns:xlink="http://www.w3.org/1999/xlink" x="0px" y="0px"
	 viewBox="0 0 512 512" style="enable-background:new 0 0 512 512;" xml:space="preserve">
<g>
	<g>
		<path d="M156.225,225.11c-17.033,0-30.89,13.857-30.89,30.89s13.857,30.89,30.89,30.89c17.033,0,30.89-13.857,30.89-30.89
			C187.114,238.967,173.257,225.11,156.225,225.11z"/>
	</g>
</g>
<g>
	<g>
		<path d="M355.651,225.11c-17.033,0-30.89,13.857-30.89,30.89s13.857,30.89,30.89,30.89c17.033,0,30.89-13.857,30.89-30.89
			C386.54,238.967,372.683,225.11,355.651,225.11z"/>
	</g>
</g>
<g>
	<g>
		<path d="M310.411,347.589c-3.263-3.26-8.548-3.26-11.81,0c-23.525,23.525-61.803,23.525-85.329,0
			c-3.259-3.262-8.546-3.26-11.806,0c-3.26,3.26-3.26,8.547,0.001,11.806c15.017,15.018,34.745,22.526,54.471,22.526
			c19.728,0,39.453-7.509,54.472-22.526C313.672,356.135,313.672,350.848,310.411,347.589z"/>
	</g>
</g>
<g>
	<g>
		<path d="M503.651,247.651h-14.282C484.955,122.698,381.947,22.403,255.938,22.403S26.92,122.699,22.506,247.651H8.349
			C3.737,247.651,0,251.389,0,256c0,4.611,3.737,8.349,8.349,8.349h14.157c4.414,124.953,107.422,225.248,233.431,225.248
			s229.018-100.295,233.431-225.248h14.282c4.612,0,8.349-3.738,8.349-8.349C512,251.389,508.263,247.651,503.651,247.651z
			 M255.938,39.1c116.801,0,212.319,92.807,216.723,208.551h-37.888c-4.187-39.892-38.014-71.089-78.997-71.089
			s-74.81,31.197-78.997,71.089h-41.557c-4.187-39.892-38.014-71.089-78.998-71.089c-40.982,0-74.81,31.197-78.997,71.089H39.215
			C43.619,131.908,139.136,39.1,255.938,39.1z M418.516,256c0,34.595-28.144,62.741-62.74,62.741
			c-34.595,0-62.74-28.146-62.74-62.741c0-34.595,28.145-62.74,62.74-62.74C390.372,193.26,418.516,221.406,418.516,256z
			 M218.966,256c0,34.595-28.146,62.741-62.741,62.741c-34.595,0-62.74-28.146-62.74-62.741c0-34.595,28.144-62.74,62.74-62.74
			C190.82,193.26,218.966,221.406,218.966,256z M255.938,472.9c-116.801,0-212.319-92.807-216.723-208.551h38.013
			c4.187,39.892,38.014,71.09,78.997,71.09s74.811-31.197,78.998-71.09h41.557c4.187,39.892,38.014,71.09,78.997,71.09
			c40.983,0,74.81-31.197,78.997-71.09h37.888C468.257,380.093,372.739,472.9,255.938,472.9z"/>
	</g>
</g>
<g>
	<g>
		<g>
			<circle cx="165.841" cy="249.619" r="8.349"/>
			<circle cx="365.1" cy="249.619" r="8.349"/>
		</g>
	</g>
</g>
<g>
</g>
<g>
</g>
<g>
</g>
<g>
</g>
<g>
</g>
<g>
</g>
<g>
</g>
<g>
</g>
<g>
</g>
<g>
</g>
<g>
</g>
<g>
</g>
<g>
</g>
<g>
</g>
<g>
</g>
</svg>
