<svg height="511pt" viewBox="-28 0 511 511.99956" width="511pt" xmlns="http://www.w3.org/2000/svg"><path d="m453.808594 209.601562c-1.308594-2.246093-3.6875-3.65625-6.285156-3.726562l-169.609376-4.460938c2.46875-1.480468 4.769532-3.273437 6.855469-5.359374l15.035157-15.039063c13.761718-13.765625 13.761718-36.164063 0-49.929687-6.667969-6.671876-15.539063-10.34375-24.972657-10.34375-9.433593 0-18.300781 3.671874-24.96875 10.34375l-15.035156 15.039062c-5.339844 5.34375-8.601563 11.988281-9.792969 18.925781l-43.949218-45.820312c-2.863282-2.988281-7.609376-3.085938-10.601563-.21875-2.988281 2.863281-3.089844 7.613281-.222656 10.601562l9.527343 9.933594-13.085937 9.425781-64.003906-78.957031c2.84375-.230469 5.46875-1.257813 7.664062-2.859375l39.136719 40.808594c1.472656 1.535156 3.441406 2.308594 5.414062 2.308594 1.867188 0 3.734376-.695313 5.191407-2.085938 2.988281-2.867188 3.085937-7.617188.21875-10.605469l-43.796875-45.667969-1.511719-42.125c-.035156-4.242187-2.738281-7.957031-6.789063-9.289062-4.140624-1.359375-8.605468.109375-11.121093 3.640625l-88.890625 124.359375c-10.683594 14.941406-10.226563 35.421875 1.085937 49.875l57.191407 80.671875c2.054687 2.90625 5.019531 5.613281 8.976562 8.195313-.207031 1.984374-.3125 3.980468-.292969 5.992187l2.382813 220.171875c.109375 10.253906 8.539062 18.59375 18.792968 18.59375h41.015626c6.335937 0 11.644531-4.128906 13.203124-10.273438 1.558594-6.144531-1.136718-12.304687-6.710937-15.328124-.203125-.109376-.410156-.210938-.625-.300782l-23.53125-10.066406c-1.335937-.574219-2.140625-1.980469-1.953125-3.421875l8.085938-63.695313c.519531-4.109374-2.386719-7.863281-6.496094-8.386718-4.097656-.519532-7.863282 2.386718-8.386719 6.496094l-1.199219 9.453124h-18.027344l-1.546874-143.402343c-.03125-2.675781.21875-5.304688.726562-7.859375.046875-.183594.089844-.371094.125-.558594 1.558594-7.269531 5.246094-13.898438 10.785156-19.183594 2.996094-2.859375 3.105469-7.605468.246094-10.601562-2.855469-2.996094-7.605469-3.109375-10.601562-.25-5.046876 4.816406-9.027344 10.574218-11.796876 16.863281-.421874-.441406-.722656-.8125-.929687-1.105469l-57.304687-80.832031c-.074219-.105469-.152344-.210937-.234376-.3125-7.316406-9.25-7.636718-22.417969-.773437-32.011719l38.75-54.214844 8.558594 6.773438-23.46875 44.019531c-.070313.128907-.136719.261719-.199219.394531-3.804688 8.28125-1.636719 18.214844 5.269531 24.15625l84.019531 72.292969-18.679687 147.136719c-.523437 4.109375 2.386719 7.863281 6.496094 8.386719.316406.039062.636719.058593.953125.058593 3.71875 0 6.949218-2.765624 7.429687-6.554687l11.894531-93.695313h40.402344c22.996094 0 43.503906-1.917968 61.53125-25.429687l5.488282-6.199219 169.832031-10.375c.058593-.003906.113281-.007812.167969-.011718 10.957031-.914063 21.28125-6.289063 28.328124-14.746094.324219-.394532.609376-.820313.851563-1.269532l5.894531-11.039062c1.226563-2.292969 1.175782-5.058594-.132812-7.304688zm-345.957032 221.875-4.984374 39.242188c-1.023438 8.054688 3.476562 15.910156 10.9375 19.101562l16.78125 7.179688h-34.234376c-2.070312 0-3.769531-1.683594-3.792968-3.753906l-.667969-61.769532zm137.585938-274.746093 15.03125-15.039063c3.839844-3.835937 8.9375-5.949218 14.363281-5.949218 5.429688 0 10.527344 2.113281 14.363281 5.949218 7.917969 7.917969 7.917969 20.800782 0 28.71875l-15.03125 15.039063c-3.839843 3.835937-8.9375 5.949219-14.363281 5.949219s-10.527343-2.113282-14.363281-5.949219c-7.917969-7.917969-7.917969-20.800781 0-28.71875zm-177.535156-85.9375 32.652344-45.683594 1.074218 29.871094c-.023437.054687-.074218.097656-.136718.097656h-5.105469c-.753907 0-1.496094.0625-2.21875.164063-.121094.007812-.234375.027343-.355469.042968-.0625.011719-.125.015625-.1875.023438-.03125.003906-.058594.011718-.085938.019531-.140624.023437-.273437.050781-.40625.082031-3.371093.652344-6.488281 2.339844-8.875 4.808594-.054687.050781-.109374.105469-.160156.15625-.039062.042969-.082031.082031-.121094.121094-.082031.089844-.15625.183594-.234374.273437-.03125.035157-.0625.070313-.09375.105469-1.027344 1.167969-1.898438 2.460938-2.566407 3.867188l-6.183593 11.59375zm-10.28125 69.828125 32.9375-61.769532 88.046875 108.621094c-1.296875 18.035156-16.25 32.335938-34.539063 32.605469l-84.949218-73.09375c-1.824219-1.566406-2.421876-4.160156-1.496094-6.363281zm187.226562 98.945312c-1.984375.121094-3.84375 1.027344-5.160156 2.515625l-7.722656 8.726563c-.121094.140625-.238282.28125-.347656.425781-10.402344 13.652344-20.054688 19.742187-49.773438 19.742187h-38.496094l4.582032-36.085937c25.605468-2.234375 45.765624-23.78125 45.765624-49.960937 0-1.71875-.59375-3.386719-1.675781-4.722657l-15.855469-19.5625 14.109376-10.164062 45.792968 47.742187c10.304688 11.523438 25.058594 18.136719 40.511719 18.164063l17.316406.457031.394531 19.703125zm172.847656-10.558594-108.421874 6.621094-.371094-18.394531 125.949218 3.3125c-4.4375 4.832031-10.617187 7.894531-17.15625 8.460937zm0 0"/></svg>