<svg height="512pt" viewBox="0 -43 512 512" width="512pt" xmlns="http://www.w3.org/2000/svg"><path d="m485.289062 158.417969c-15.277343-20.449219-35.929687-34.886719-58.148437-40.644531-16.644531-4.316407-37.089844-3.375-60.757813 2.792968-3.289062.851563-6.730468 1.59375-10.210937 2.195313-6.230469 1.066406-12.527344 1.640625-18.800781 1.726562-.304688-1.382812-.625-2.757812-.964844-4.132812l13.601562-13.601563c1.242188.398438 2.542969.671875 3.898438.777344 2.1875.164062 4.371094.246094 6.546875.246094 9.136719 0 18.148437-1.449219 26.867187-4.328125 3.9375-1.296875 6.070313-5.539063 4.773438-9.472657-1.296875-3.933593-5.539062-6.070312-9.472656-4.769531-6.027344 1.988281-12.230469 3.128907-18.519532 3.453125l42.28125-42.28125c2.929688-2.925781 2.929688-7.675781 0-10.605468-2.929687-2.929688-7.679687-2.929688-10.609374 0l-42.265626 42.269531c.914063-17.359375 8.164063-33.867188 20.601563-46.308594 15.007813-15.007813 35.628906-22.40625 56.726563-20.414063 1.996093 21.105469-5.40625 41.71875-20.414063 56.726563-2.929687 2.929687-2.929687 7.679687 0 10.605469 2.929687 2.929687 7.679687 2.929687 10.605469 0 18.550781-18.550782 27.511718-44.160156 24.582031-70.261719-.703125-6.269531-5.570313-11.140625-11.84375-11.84375-26.101563-2.929687-51.710937 6.03125-70.261719 24.582031-17.6875 17.6875-26.757812 42.15625-24.875 67.125.101563 1.355469.375 2.65625.773438 3.894532l-7.921875 7.921874c-.917969-2.53125-1.890625-5.042968-2.933594-7.53125-3.519531-8.394531-7.792969-16.570312-12.703125-24.296874-2.222656-3.496094-6.855469-4.527344-10.351562-2.308594-3.496094 2.222656-4.53125 6.855468-2.308594 10.351562 4.457031 7.015625 8.335937 14.433594 11.527344 22.050782 2.902343 6.9375 5.257812 14.074218 7.074218 21.375-5.683594-.652344-11.332031-1.699219-16.878906-3.144532-23.679688-6.171875-44.125-7.109375-60.765625-2.792968-28.667969 7.4375-54.128906 29.082031-69.273437 58.527343-14.21875-5.398437-29.628907-8.367187-45.71875-8.367187-71.210938 0-129.148438 57.9375-129.148438 129.15625 0 71.214844 57.9375 129.152344 129.152344 129.152344 34.429687 0 67.140625-13.894532 91.066406-37.621094 2.246094 2.507812 4.523438 4.929687 6.816406 7.230468 19.839844 19.882813 40.1875 30.394532 58.847656 30.394532 10.964844 0 22.265626-1.664063 32.683594-4.816406 11.171875-3.378907 22.980469-3.378907 34.152344 0 10.414062 3.152343 21.71875 4.816406 32.691406 4.816406 17.847656 0 37.332032-9.667969 56.347656-27.957032 39.386719-37.820312 70.242188-105.363281 70.242188-153.765624 0-32.9375-9.234375-62.710938-26.710938-86.105469zm-53.925781 229.054687c-16.167969 15.554688-32.058593 23.773438-45.953125 23.773438-9.382812 0-19.453125-1.480469-28.347656-4.171875-14.011719-4.238281-28.828125-4.242188-42.839844 0-8.898437 2.6875-18.960937 4.171875-28.339844 4.171875-14.589843 0-31.265624-8.988282-48.226562-25.984375-2.480469-2.492188-4.941406-5.140625-7.363281-7.890625 3.886719-4.882813 7.453125-10.0625 10.632812-15.542969 2.082031-3.582031.859375-8.171875-2.722656-10.25-3.582031-2.082031-8.171875-.859375-10.25 2.722656-20.382813 35.121094-58.242187 56.941407-98.804687 56.941407-62.941407 0-114.148438-51.207032-114.148438-114.152344 0-62.945313 51.207031-114.15625 114.152344-114.15625 62.941406 0 114.152344 51.207031 114.152344 114.15625 0 8.5625-.953126 17.101562-2.832032 25.375-.914062 4.039062 1.617188 8.054687 5.65625 8.972656 4.039063.910156 8.058594-1.613281 8.972656-5.65625 2.125-9.359375 3.203126-19.011719 3.203126-28.691406 0-49.800782-28.335938-93.097656-69.726563-114.644532 13.242187-25.316406 35-43.839843 59.332031-50.152343 13.9375-3.617188 32.335938-2.648438 53.214844 2.789062 7.753906 2.019531 15.679688 3.34375 23.632812 3.976563.875 6.234375 1.375 12.5625 1.484376 18.972656.070312 4.097656 3.414062 7.371094 7.496093 7.371094h.128907c4.144531-.070313 7.441406-3.484375 7.371093-7.625-.101562-6.191406-.546875-12.308594-1.300781-18.347656 6.261719-.199219 12.546875-.820313 18.773438-1.882813 3.90625-.675781 7.757812-1.503906 11.449218-2.464844 20.871094-5.4375 39.269532-6.402343 53.214844-2.789062 18.65625 4.835937 36.84375 17.632812 49.894531 35.105469 15.527344 20.777343 23.730469 47.449218 23.730469 77.125 0 44.074218-29.441406 108.195312-65.636719 142.949218zm0 0"/><path d="m186.773438 226.007812c0 4.917969-3.988282 8.90625-8.90625 8.90625-4.917969 0-8.90625-3.988281-8.90625-8.90625 0-4.921874 3.988281-8.90625 8.90625-8.90625 4.917968 0 8.90625 3.984376 8.90625 8.90625zm0 0"/></svg>