<svg height="511pt" viewBox="-6 1 511 511.99975" width="511pt" xmlns="http://www.w3.org/2000/svg"><path d="m270.542969 228.019531c4.453125 4.453125 10.300781 6.675781 16.148437 6.675781s11.699219-2.226562 16.148438-6.675781l102.570312-102.511719c5.261719-5.261718 9.671875-11.234374 13.105469-17.753906 1.929687-3.667968.523437-8.203125-3.140625-10.132812-3.667969-1.929688-8.203125-.523438-10.132812 3.140625-2.730469 5.1875-6.242188 9.941406-10.4375 14.132812l-102.570313 102.515625c-3.058594 3.054688-8.03125 3.054688-11.085937 0l-102.570313-102.515625c-11.0625-11.054687-17.152344-25.753906-17.152344-41.390625 0-15.636718 6.09375-30.335937 17.152344-41.390625 22.839844-22.824219 60-22.828125 82.839844 0l15.84375 15.832031c5.199219 5.199219 13.660156 5.199219 18.863281 0l15.84375-15.832031c22.835938-22.824219 59.996094-22.828125 82.835938 0 10.667968 10.660157 16.753906 24.828125 17.136718 39.894531.101563 4.078126 3.441406 7.3125 7.492188 7.3125.066406 0 .132812-.003906.195312-.003906 4.140625-.105468 7.414063-3.546875 7.308594-7.6875-.480469-18.929687-8.125-36.730468-21.527344-50.125-28.6875-28.671875-75.363281-28.671875-104.046875 0l-14.671875 14.660156-14.667968-14.660156c-28.6875-28.671875-75.363282-28.671875-104.046876 0-13.898437 13.890625-21.550781 32.355469-21.550781 52 0 19.644532 7.652344 38.113282 21.550781 52.003906zm0 0"/><path d="m495.539062 260.683594c-7.558593-7.863282-18.140624-12.375-29.039062-12.375-9.566406 0-18.839844 3.421875-26.113281 9.628906-.070313.0625-.140625.125-.207031.1875l-95.238282 87.667969c-.664062.539062-1.496094.832031-2.347656.832031h-71.550781c-4.1875 0-7.59375-3.40625-7.59375-7.59375 0-2.023438.792969-3.933594 2.210937-5.355469 1.441406-1.4375 3.355469-2.230469 5.382813-2.230469h51.113281c17.367188 0 31.5-14.121093 31.5-31.476562 0-8.40625-3.273438-16.316406-9.226562-22.28125-5.957032-5.9375-13.867188-9.207031-22.273438-9.207031h-126.886719c-28.085937 0-54.671875 10.746093-74.863281 30.253906l-6.121094 5.921875c-2.980468 2.878906-3.058594 7.628906-.179687 10.605469 2.878906 2.976562 7.625 3.058593 10.605469.179687l6.121093-5.917968c17.378907-16.792969 40.261719-26.042969 64.4375-26.042969h126.886719c4.40625 0 8.558594 1.714843 11.667969 4.820312 3.113281 3.117188 4.832031 7.265625 4.832031 11.667969 0 9.085938-7.402344 16.476562-16.5 16.476562h-51.113281c-6.023438 0-11.695313 2.34375-15.988281 6.617188-4.261719 4.273438-6.605469 9.945312-6.605469 15.96875 0 12.460938 10.136719 22.597656 22.59375 22.597656h71.550781c4.457031 0 8.777344-1.597656 12.171875-4.496094.066406-.058593.136719-.121093.207031-.183593l95.257813-87.6875c4.542969-3.839844 10.3125-5.953125 16.269531-5.953125 6.9375 0 13.414062 2.761718 18.222656 7.765625.917969.957031.957032 2.429687.089844 3.421875l-111.671875 127.773437c-4.980469 5.695313-12.175781 8.960938-19.75 8.960938h-145.726563c-16.632812 0-32.375 6.125-44.601562 17.269531l-76.359375-76.316406 15.90625-15.378906c2.980469-2.878907 3.058594-7.625.179687-10.605469-2.878906-2.976563-7.625-3.058594-10.605468-.179688l-16.09375 15.558594-.214844-.214844c-5.972656-5.972656-15.691406-5.972656-21.664062-.003906l-49.222657 49.195313c-2.894531 2.894531-4.488281 6.742187-4.488281 10.835937s1.59375 7.941406 4.492188 10.839844l95.34375 95.292969c2.984374 2.984374 6.90625 4.476562 10.828124 4.476562 3.925782 0 7.847657-1.492188 10.832032-4.476562l49.222656-49.195313c2.894531-2.894531 4.488281-6.742187 4.488281-10.835937 0-2.914063-.820312-5.695313-2.328125-8.105469 9.429688-8.496094 21.515625-13.152344 34.285156-13.152344h145.726563c11.902344 0 23.214844-5.136719 31.042969-14.09375l111.675781-127.777344c6.015625-6.890625 5.773437-17.070312-.570313-23.679687zm-334.925781 187.035156-49.21875 49.191406c-.125.125-.328125.128906-.453125 0l-95.34375-95.292968c-.03125-.027344-.097656-.09375-.097656-.226563s.066406-.199219.09375-.226563l49.222656-49.195312c.0625-.0625.144532-.09375.226563-.09375s.164062.03125.226562.09375l92.28125 92.234375c.019531.019531.035157.042969.054688.0625.03125.027344.0625.054687.09375.082031l2.914062 2.914063c.027344.027343.097657.097656.097657.230469 0 .132812-.070313.199218-.097657.226562zm0 0"/></svg>