<svg height="511pt" viewBox="1 -107 511.999 511" width="511pt" xmlns="http://www.w3.org/2000/svg"><path d="m497.128906 122.863281h-21.191406v-52.28125c0-9.898437-8.054688-17.953125-17.953125-17.953125h-14.285156c-1.007813 0-1.988281.105469-2.953125.265625v-28.300781c0-13.285156-10.804688-24.09375-24.089844-24.09375h-22.675781c-13.285157 0-24.09375 10.808594-24.09375 24.09375v90.402344h-16.078125c-8.238282 0-15.796875 2.957031-21.679688 7.867187h-152.261718c-5.878907-4.90625-13.4375-7.867187-21.679688-7.867187h-16.078125v-90.402344c0-13.285156-10.808594-24.09375-24.089844-24.09375h-22.675781c-13.285156 0-24.09375 10.808594-24.09375 24.09375v28.300781c-.964844-.160156-1.945312-.265625-2.953125-.265625h-14.285156c-9.898438 0-17.949219 8.054688-17.949219 17.953125v52.28125h-21.191406c-8.199219 0-14.871094 6.671875-14.871094 14.871094v22.277344c0 8.199219 6.671875 14.871093 14.871094 14.871093h21.1875v52.28125c0 9.902344 8.054687 17.953126 17.953125 17.953126h14.285156c1.007813 0 1.988281-.101563 2.953125-.261719v28.300781c0 13.285156 10.808594 24.09375 24.089844 24.09375h22.679687c13.28125 0 24.089844-10.808594 24.089844-24.09375v-90.402344h16.078125c8.242188 0 15.804688-2.960937 21.683594-7.871094h152.253906c5.878906 4.910157 13.441406 7.871094 21.683594 7.871094h16.078125v39.671875c0 4.140625 3.355469 7.5 7.5 7.5 4.140625 0 7.5-3.359375 7.5-7.5v-45.875c.074219-.421875.117187-.851562.117187-1.296875v-52.757812c0-.441406-.042968-.875-.117187-1.292969v-96.609375c0-5.015625 4.078125-9.09375 9.09375-9.09375h22.675781c5.011719 0 9.089844 4.078125 9.089844 9.09375v248.5625c0 5.015625-4.078125 9.09375-9.089844 9.09375h-22.675781c-5.015625 0-9.09375-4.078125-9.09375-9.09375v-22.777344c0-4.140625-3.359375-7.5-7.5-7.5-4.144531 0-7.5 3.359375-7.5 7.5v22.777344c0 13.285156 10.808593 24.09375 24.09375 24.09375h22.675781c13.285156 0 24.089844-10.808594 24.089844-24.09375v-28.300781c.964844.160156 1.945312.265625 2.953125.265625h14.285156c9.898437 0 17.953125-8.054688 17.953125-17.953125v-52.285157h21.191406c8.199219 0 14.871094-6.671874 14.871094-14.871093v-22.277344c0-8.199219-6.671875-14.871094-14.871094-14.871094zm-306.90625 15h131.554688c-1.191406 3.457031-1.847656 7.160157-1.847656 11.011719 0 3.855469.65625 7.554688 1.84375 11.007812h-131.550782c1.191406-3.453124 1.847656-7.152343 1.847656-11.007812-.003906-3.855469-.660156-7.554688-1.847656-11.011719zm-175.222656 22.019531v-22.019531h21.0625v22.019531zm103.019531 122.367188h-22.675781c-5.015625 0-9.09375-4.078125-9.09375-9.09375v-150.660156c0-4.144532-3.355469-7.5-7.5-7.5s-7.5 3.355468-7.5 7.5v104.671875c0 1.625-1.324219 2.953125-2.953125 2.953125h-14.285156c-1.625 0-2.949219-1.328125-2.949219-2.953125v-59.6875c0-.03125.003906-.066407.003906-.097657 0-.035156-.003906-.0625-.003906-.097656v-36.828125c0-.03125.003906-.0625.003906-.09375 0-.035156-.003906-.066406-.003906-.097656v-59.683594c0-1.628906 1.324219-2.953125 2.949219-2.953125h14.285156c1.628906 0 2.953125 1.324219 2.953125 2.953125v18.832031c0 4.140626 3.355469 7.5 7.5 7.5s7.5-3.359374 7.5-7.5v-64.824218c0-5.011719 4.078125-9.09375 9.09375-9.09375h22.675781c5.011719 0 9.089844 4.082031 9.089844 9.09375v96.617187c-.070313.417969-.117187.847657-.117187 1.285157v52.761718c0 .441406.046874.867188.117187 1.289063v96.613281c0 5.015625-4.078125 9.09375-9.089844 9.09375zm24.089844-114.496094v-.292968c0-.027344.003906-.050782.003906-.078126 0-.023437-.003906-.050781-.003906-.078124v-36.863282c0-.027344.003906-.050781.003906-.078125 0-.023437-.003906-.050781-.003906-.074219v-.292968h16.078125c10.410156 0 18.878906 8.472656 18.878906 18.882812s-8.46875 18.878906-18.878906 18.878906h-16.078125zm211.699219 0c-10.410156 0-18.878906-8.46875-18.878906-18.878906s8.46875-18.878906 18.878906-18.878906h16.078125v.347656.019531.019531 36.980469.019531.019532.351562zm104.175781 62.367188h-14.285156c-1.628907 0-2.953125-1.324219-2.953125-2.953125v-156.585938c0-1.625 1.324218-2.953125 2.953125-2.953125h14.285156c1.628906 0 2.953125 1.328125 2.953125 2.953125v59.722657c0 .019531-.003906.039062-.003906.058593s.003906.039063.003906.058594v36.902344c0 .019531-.003906.039062-.003906.058593 0 .019532.003906.039063.003906.058594v59.726563c0 1.628906-1.324219 2.953125-2.953125 2.953125zm39.015625-70.238282h-21.0625v-22.019531h21.0625zm0 0"/></svg>