<?xml version="1.0" encoding="iso-8859-1"?>
<!-- Generator: Adobe Illustrator 18.0.0, SVG Export Plug-In . SVG Version: 6.00 Build 0)  -->
<!DOCTYPE svg PUBLIC "-//W3C//DTD SVG 1.1//EN" "http://www.w3.org/Graphics/SVG/1.1/DTD/svg11.dtd">
<svg version="1.1" id="Capa_1" xmlns="http://www.w3.org/2000/svg" xmlns:xlink="http://www.w3.org/1999/xlink" x="0px" y="0px"
	 viewBox="0 0 340.69 340.69" style="enable-background:new 0 0 340.69 340.69;" xml:space="preserve">
<g>
	<g>
		<path d="M281.41,189.572h-9.16v-13.012c0-4.142-3.358-7.5-7.5-7.5h-61.063c-4.143,0-7.5,3.358-7.5,7.5v13.012h-9.161
			c-4.142,0-7.5,3.358-7.5,7.5V314.63c0,14.37,11.691,26.06,26.061,26.06h57.264c14.369,0,26.06-11.69,26.06-26.06V197.072
			C288.91,192.93,285.552,189.572,281.41,189.572z M211.187,184.061h46.063v5.512h-46.063V184.061z M273.91,314.63
			c0,6.099-4.961,11.06-11.06,11.06h-57.264c-6.099,0-11.061-4.961-11.061-11.06V204.572h79.384V314.63z"/>
		<path d="M153.664,207.292h-9.16V96.858c0-4.142-3.358-7.5-7.5-7.5h-0.978V34.897c0-0.318-0.022-7.882-1.987-15.558
			C129.732,2.513,119.951,0,114.503,0c-6.851,0-14.232,6.165-24.684,20.615c-6.467,8.941-11.648,17.736-11.866,18.106
			c-0.677,1.152-1.033,2.463-1.033,3.799v46.837h-0.977c-4.143,0-7.5,3.358-7.5,7.5v110.434H59.28c-4.142,0-7.5,3.358-7.5,7.5
			v99.837c0,14.37,11.69,26.06,26.061,26.06h57.263c14.37,0,26.061-11.69,26.061-26.06v-99.837
			C161.164,210.65,157.806,207.292,153.664,207.292z M91.919,44.581c8.553-14.226,18.892-27.509,23.01-29.533
			c3.648,0.832,6.073,12.228,6.098,19.849v54.461H91.919V44.581z M83.441,104.358h46.063v102.934H83.441V104.358z M146.164,314.63
			c0,6.099-4.962,11.06-11.061,11.06H77.84c-6.099,0-11.061-4.961-11.061-11.06v-92.337h79.384V314.63z"/>
	</g>
</g>
<g>
</g>
<g>
</g>
<g>
</g>
<g>
</g>
<g>
</g>
<g>
</g>
<g>
</g>
<g>
</g>
<g>
</g>
<g>
</g>
<g>
</g>
<g>
</g>
<g>
</g>
<g>
</g>
<g>
</g>
</svg>
